<svg width="240" height="276" viewBox="0 0 240 276" fill="none" xmlns="http://www.w3.org/2000/svg">
<path fill-rule="evenodd" clip-rule="evenodd" d="M133.773 0.259939C190.459 3.37956 235.723 45.6742 238.842 102.36C240.008 123.542 240.01 148.325 238.842 169.535C235.723 226.22 191.408 267.864 133.773 274.604C114.798 276.823 99.3867 277.056 79.0276 270.319C32.7709 255.013 3.67787 224.002 0.874725 173.066C-0.290955 151.885 -0.292542 126.54 0.874725 105.33C8.13028 45.3769 47.1053 8.46429 83.6731 3.22946C108.723 -0.356518 124.577 -0.246105 133.773 0.259939ZM63.672 114.468C67.7811 103.2 74.3004 95.3265 82.1533 90.4007C89.9763 85.4938 98.8824 83.6616 107.568 84.0505C124.718 84.8183 141.856 94.3229 149.21 107.521C150.559 109.943 151.301 111.894 151.983 113.688C152.907 116.116 153.722 118.258 155.786 120.895C159.376 125.479 177.637 133.937 181.551 134.717C187.178 135.839 193.232 137.142 198.074 138.503C200.482 139.181 202.71 139.905 204.474 140.672C205.353 141.054 206.223 141.493 206.979 142.001C207.654 142.456 208.645 143.234 209.248 144.437C209.967 145.869 210.779 147.819 210.962 149.892C211.158 152.102 210.635 154.753 208.311 156.739C207.268 157.631 205.568 158.499 203.768 159.264C201.834 160.086 199.369 160.958 196.502 161.757C190.77 163.354 183.285 164.696 175.025 164.696C167.848 164.696 161.261 163.825 155.976 163.126H155.976C149.283 162.24 144.677 161.631 143.602 163.418C141.085 166.292 141.833 172.373 142.669 179.174C143.122 182.859 143.602 186.755 143.602 190.467C143.602 191.985 143.637 193.726 143.675 195.602L143.675 195.603C143.918 207.56 144.273 224.997 136.29 224.997C134.7 225.167 135.271 217.565 135.977 208.173C136.522 200.93 137.147 192.622 136.922 185.992C136.692 179.216 136.014 173.421 135.367 167.891C134.656 161.813 133.982 156.056 133.982 149.669C133.982 143.328 137.011 137.773 140.465 133.57C141.247 132.619 141.929 131.898 142.537 131.257L142.537 131.257C144.116 129.592 145.188 128.462 146.167 125.211C147.667 120.232 147.16 119.358 144.324 114.471C143.793 113.555 143.18 112.499 142.483 111.248C136.654 100.787 122.209 92.387 107.223 91.7161C99.8406 91.3856 92.5408 92.9505 86.2509 96.8958C79.9911 100.822 74.4906 107.256 70.9042 117.09C66.6018 128.888 67.2063 138.539 69.3427 148.792C70.0193 152.039 70.8874 155.462 71.8041 159.077C73.7226 166.641 75.8534 175.043 76.8844 184.421C78.8988 202.743 74.7974 227.682 69.2347 223.845C66.2365 221.777 67.2167 214.694 68.3553 206.465C69.3293 199.426 70.4192 191.55 69.2347 185.257C68.2579 176.372 66.3677 168.953 64.5181 161.693L64.5178 161.692L64.5169 161.688C63.5589 157.927 62.6117 154.209 61.808 150.353C59.4962 139.257 58.7182 128.051 63.672 114.468ZM145.526 150.566C143.099 147.831 142.595 144.016 147.126 138.503C147.412 138.155 147.685 137.82 147.945 137.498C151.319 133.344 152.78 131.545 158.05 134.088C164.296 137.101 171.365 140.511 180.042 142.241C182.141 142.66 184.211 142.916 186.258 143.168L186.258 143.168C190.274 143.664 194.199 144.148 198.074 145.833C200.997 147.104 200.391 151.268 198.186 152.205C198.186 152.205 194.449 153.647 191.865 154.367L191.577 154.448C186.536 155.853 182.337 157.023 175.025 157.023C166.463 157.023 150.784 156.493 145.526 150.566ZM122.495 129.359C118.17 130.907 112.088 131.369 112.041 123.688C111.988 115.274 117.438 112.915 121.757 113.977C126.882 115.237 128.07 127.362 122.495 129.359ZM187.696 73.9955L213.151 62.6154L215.489 67.8459L205.621 72.2577L206.728 74.7334L218.467 74.5061L221.008 80.1899L206.5 80.4L195.646 91.7793L193.074 86.0257L201.916 76.8847L200.809 74.409L190.034 79.226L187.696 73.9955ZM174.629 60.4322C175.115 61.9146 176.007 63.321 177.306 64.6512C178.622 65.9997 180.006 66.9258 181.459 67.4296C182.947 67.9338 184.405 68.0235 185.831 67.6987C187.294 67.3742 188.626 66.6251 189.829 65.4512L185.827 61.3511C185.044 62.1159 184.211 62.484 183.329 62.4553C182.483 62.427 181.66 62.0029 180.859 61.1829C180.059 60.3629 179.646 59.5205 179.62 58.6559C179.631 57.7917 180.028 56.9771 180.811 56.2123L189.285 47.9416C190.087 47.159 190.911 46.7818 191.757 46.8101C192.62 46.8566 193.452 47.2898 194.253 48.1098C195.053 48.9298 195.457 49.7631 195.465 50.6095C195.491 51.4741 195.102 52.2978 194.301 53.0804L198.303 57.1805C199.524 55.9888 200.305 54.6747 200.646 53.2383C201.006 51.82 200.942 50.3697 200.456 48.8872C200.006 47.4052 199.122 45.9899 197.806 44.6415C196.508 43.3112 195.114 42.394 193.626 41.8898C192.156 41.3678 190.698 41.2601 189.254 41.5667C187.828 41.8916 186.504 42.6499 185.283 43.8415L176.809 52.1123C175.607 53.2862 174.817 54.5911 174.439 56.0271C174.098 57.4635 174.161 58.9319 174.629 60.4322ZM158.394 52.8103C155.906 51.4693 154.295 49.7337 153.563 47.6035C152.854 45.4854 153.127 43.2607 154.383 40.9295L163.734 23.5796L168.778 26.2978L159.445 43.6141C158.889 44.6452 158.718 45.5799 158.932 46.4181C159.18 47.2461 159.786 47.9198 160.75 48.4392C161.691 48.9466 162.576 49.0763 163.404 48.8283C164.244 48.5578 164.942 47.907 165.497 46.8759L174.83 29.5597L179.873 32.2779L170.523 49.6278C169.278 51.9366 167.559 53.3821 165.365 53.9642C163.206 54.5359 160.882 54.1513 158.394 52.8103ZM130.087 17.582L128.424 45.4155L137.461 45.9553C139.392 46.0707 141.092 45.8024 142.56 45.1502C144.054 44.4742 145.235 43.4862 146.104 42.186C146.998 40.8874 147.498 39.3485 147.604 37.5692L148.199 27.6177C148.306 25.813 147.993 24.2254 147.259 22.8551C146.551 21.4608 145.495 20.3518 144.09 19.5281C142.711 18.7059 141.055 18.2372 139.123 18.1218L130.087 17.582ZM137.779 40.6174L134.462 40.4192L135.487 23.2615L138.804 23.4597C139.974 23.5296 140.894 23.9162 141.567 24.6196C142.239 25.323 142.543 26.2085 142.479 27.2761L141.885 37.2275C141.82 38.3205 141.411 39.1762 140.66 39.7946C139.909 40.413 138.949 40.6872 137.779 40.6174ZM98.2546 46.8651L97.4966 36.9631L88.1285 19.6756L94.1078 19.2178L98.253 27.3282C98.6726 28.1389 99.0453 29.0042 99.3711 29.9242C99.7223 30.8422 99.9711 31.5893 100.117 32.1655C100.2 31.5719 100.319 30.7966 100.476 29.8396C100.658 28.8808 100.882 27.9698 101.147 27.1067L103.896 18.4685L109.837 18.0137L103.209 36.5258L103.967 46.4278L98.2546 46.8651ZM63.9111 32.1724L72.9641 59.4169L77.9115 56.3064L75.6888 50.2593L81.3152 46.7219L85.8015 51.3458L90.7489 48.2352L70.0549 28.3097L63.9111 32.1724ZM78.0349 43.3701L74.0575 45.8708L71.6555 39.3951C71.3129 38.4674 70.9556 37.5642 70.5834 36.6852C70.2328 35.7927 69.9583 35.093 69.7599 34.5861C70.1308 34.9846 70.6492 35.546 71.3151 36.2703C71.9891 36.9595 72.659 37.6662 73.325 38.3905L78.0349 43.3701ZM57.2676 74.825L35.7787 57.057L39.4297 52.6415L56.7974 67.0019L63.9776 58.3181L68.0987 61.7256L57.2676 74.825ZM22.1984 86.7235L48.7404 95.2673L50.4959 89.8135L40.8245 86.7003L41.9832 83.1008C42.584 81.2343 42.7553 79.4972 42.4971 77.8893C42.2389 76.2813 41.6045 74.8867 40.5937 73.7053C39.5587 72.5161 38.205 71.6523 36.5325 71.1139C34.8357 70.5678 33.2323 70.4796 31.7222 70.8495C30.2198 71.1952 28.8909 71.9579 27.7355 73.1375C26.5878 74.2928 25.7135 75.8037 25.1127 77.6701L22.1984 86.7235ZM37.0748 81.5207L35.9161 85.1202L28.8625 82.8497L30.0211 79.2502C30.3957 78.0867 31.0194 77.2709 31.8923 76.8029C32.7488 76.3028 33.7103 76.2244 34.7769 76.5678C35.8434 76.9111 36.5907 77.5395 37.0189 78.4531C37.4307 79.3347 37.4493 80.3572 37.0748 81.5207Z" fill="#3D7AF0"/>
</svg>
