<?xml version="1.0" standalone="no"?>
<!DOCTYPE svg PUBLIC "-//W3C//DTD SVG 20010904//EN"
 "http://www.w3.org/TR/2001/REC-SVG-20010904/DTD/svg10.dtd">
<svg version="1.0" xmlns="http://www.w3.org/2000/svg"
 width="626.000000pt" height="626.000000pt" viewBox="0 0 626.000000 626.000000"
 preserveAspectRatio="xMidYMid meet">
<metadata>
Created by potrace 1.14, written by Peter Selinger 2001-2017
</metadata>
<g transform="translate(0.000000,626.000000) scale(0.100000,-0.100000)"
fill="#000000" stroke="none">
<path d="M3177 6153 c18 -2 50 -2 70 0 21 2 7 4 -32 4 -38 0 -55 -2 -38 -4z"/>
<path d="M2938 6143 c12 -2 30 -2 40 0 9 3 -1 5 -23 4 -22 0 -30 -2 -17 -4z"/>
<path d="M3443 6143 c9 -2 25 -2 35 0 9 3 1 5 -18 5 -19 0 -27 -2 -17 -5z"/>
<path d="M2798 6133 c6 -2 18 -2 25 0 6 3 1 5 -13 5 -14 0 -19 -2 -12 -5z"/>
<path d="M3558 6133 c7 -3 16 -2 19 1 4 3 -2 6 -13 5 -11 0 -14 -3 -6 -6z"/>
<path d="M2688 6123 c6 -2 18 -2 25 0 6 3 1 5 -13 5 -14 0 -19 -2 -12 -5z"/>
<path d="M2608 6113 c7 -3 16 -2 19 1 4 3 -2 6 -13 5 -11 0 -14 -3 -6 -6z"/>
<path d="M2518 6103 c7 -3 16 -2 19 1 4 3 -2 6 -13 5 -11 0 -14 -3 -6 -6z"/>
<path d="M2850 6049 c-225 -19 -470 -53 -576 -79 -665 -167 -1228 -803 -1434
-1621 -55 -219 -70 -339 -81 -689 -15 -446 -5 -1432 16 -1595 57 -433 213
-793 471 -1085 360 -407 989 -714 1581 -771 190 -18 523 4 774 51 862 162
1542 725 1798 1487 60 182 89 332 102 548 14 225 6 1691 -10 1830 -59 504
-255 923 -595 1273 -324 334 -767 558 -1256 637 -123 20 -618 29 -790 14z
m757 -410 c24 -12 53 -35 65 -52 22 -30 23 -41 22 -192 -1 -180 -13 -221 -76
-267 -31 -21 -42 -23 -170 -23 -75 0 -139 3 -143 6 -3 4 1 118 10 253 8 136
15 261 15 278 l0 31 118 -7 c86 -5 128 -12 159 -27z m-699 -61 c-106 -290
-104 -284 -96 -387 4 -52 5 -97 3 -100 -3 -2 -30 -6 -60 -9 -63 -5 -60 -10
-69 121 -6 74 -9 84 -96 243 -49 91 -90 169 -90 173 0 9 57 21 97 21 17 0 31
-17 64 -77 23 -42 50 -97 60 -122 10 -25 18 -37 19 -27 0 11 16 71 35 133 l36
113 64 0 64 0 -31 -82z m1150 -48 c20 -10 43 -23 50 -28 11 -7 -9 -50 -87
-189 -56 -99 -101 -190 -101 -203 0 -33 28 -60 61 -60 36 0 53 23 164 223 48
86 89 157 90 157 3 0 97 -51 104 -56 7 -5 -201 -369 -227 -396 -77 -83 -241
-43 -300 72 -29 56 -24 102 20 180 126 226 180 320 184 320 3 0 21 -9 42 -20z
m-1679 -301 c95 -92 170 -172 166 -178 -3 -6 -26 -23 -51 -37 l-45 -27 -45 44
-44 43 -33 -17 c-70 -39 -71 -41 -54 -89 8 -24 18 -50 21 -59 5 -12 -6 -25
-42 -48 -27 -17 -51 -31 -55 -31 -3 0 -45 118 -93 263 -48 144 -89 267 -91
274 -3 7 23 30 58 52 l63 40 35 -31 c20 -17 114 -107 210 -199z m2268 -95 c96
-78 121 -189 58 -261 l-24 -28 -42 42 c-40 39 -42 44 -30 67 18 32 7 69 -25
91 -35 23 -48 16 -159 -86 -113 -103 -125 -121 -104 -157 19 -34 63 -51 89
-34 18 11 24 7 57 -29 21 -23 38 -46 38 -52 0 -17 -68 -47 -107 -47 -20 0 -48
4 -62 10 -34 13 -104 77 -123 114 -20 39 -20 113 0 152 16 32 209 217 250 242
14 7 46 11 84 9 52 -2 69 -8 100 -33z m-2968 -344 c90 -74 167 -135 171 -135
5 0 38 37 75 82 l67 83 27 -19 c14 -10 34 -28 44 -39 18 -20 17 -23 -88 -149
-58 -70 -110 -128 -115 -128 -11 0 -430 345 -430 354 0 12 72 92 79 89 4 -2
80 -64 170 -138z m3316 -127 c29 -68 29 -80 3 -88 -12 -4 -57 -21 -99 -37 -65
-24 -76 -32 -72 -48 3 -11 6 -21 7 -21 0 -1 55 -4 120 -8 l119 -6 18 -50 c28
-81 36 -76 -125 -69 l-145 7 -117 -108 -117 -108 -24 64 -24 64 43 40 c24 22
67 62 96 88 44 41 51 51 42 67 -11 20 -21 18 -193 -49 -16 -6 -30 -11 -32 -11
-8 0 -46 115 -38 118 38 15 510 190 515 191 4 1 15 -16 23 -36z m-3540 -104
c57 -16 95 -46 116 -93 22 -49 24 -93 5 -162 l-14 -52 95 -25 c53 -14 97 -27
98 -29 2 -2 -4 -29 -12 -61 -12 -43 -20 -56 -32 -53 -9 3 -131 35 -271 72
-140 37 -256 69 -258 70 -8 5 61 232 79 260 25 41 40 53 86 70 47 16 58 17
108 3z m2098 -362 c7 -17 -4 -34 -23 -39 -14 -3 -60 -47 -60 -58 0 -11 39 -38
45 -32 9 9 59 15 120 14 77 -1 101 -6 122 -25 11 -9 22 -15 24 -13 2 2 25 -10
50 -27 52 -36 118 -107 98 -107 -7 0 -10 -3 -7 -6 4 -3 9 -4 12 -2 11 6 54
-75 51 -94 -2 -10 -1 -18 4 -18 24 0 60 -207 43 -246 -6 -13 -9 -30 -6 -38 3
-8 -3 -19 -15 -26 -12 -6 -21 -18 -21 -28 1 -15 2 -15 13 -2 21 26 38 23 27
-5 -6 -15 -6 -26 1 -30 5 -4 7 -10 4 -14 -2 -5 20 -32 50 -60 30 -29 55 -56
55 -62 0 -5 4 -9 9 -9 5 0 12 -8 15 -17 10 -28 36 -73 82 -144 30 -47 44 -79
46 -108 2 -37 -2 -46 -36 -77 -21 -19 -45 -36 -54 -37 -9 -1 -21 -5 -27 -9 -5
-3 -38 -4 -73 -3 -50 3 -70 9 -97 30 -35 26 -35 26 -35 4 0 -32 -12 -15 -15
21 -2 21 -13 40 -36 58 -18 15 -46 42 -63 61 -45 50 -119 119 -131 121 -5 1
-17 7 -25 13 -13 10 -13 10 -3 -4 7 -9 10 -18 7 -22 -3 -3 4 -10 15 -17 12 -6
21 -15 21 -20 0 -5 5 -21 12 -37 6 -15 10 -34 9 -40 -1 -7 4 -13 11 -13 9 0 9
-3 -2 -10 -11 -8 -8 -9 13 -4 21 5 27 3 27 -10 0 -9 5 -16 11 -16 5 0 8 -4 5
-9 -3 -5 3 -20 14 -33 11 -14 17 -28 14 -30 -3 -3 5 -34 17 -69 20 -57 21 -69
10 -138 -6 -42 -11 -86 -11 -99 0 -21 -21 -75 -52 -139 -6 -13 -17 -23 -24
-23 -11 0 -24 -21 -24 -40 0 -5 17 7 39 28 21 20 54 51 75 69 20 17 36 37 36
45 0 7 7 21 14 31 14 18 14 17 21 -2 9 -29 45 -28 45 0 0 21 1 21 20 -4 11
-14 20 -30 20 -36 0 -6 16 -40 36 -76 34 -62 35 -67 20 -84 -21 -23 -13 -86
13 -100 9 -5 17 -20 18 -33 1 -13 5 -50 9 -83 9 -83 9 -112 0 -170 -9 -62 -46
-140 -66 -140 -8 0 -17 -9 -20 -20 -3 -11 -14 -33 -25 -49 -14 -21 -16 -31 -7
-34 21 -7 13 -20 -9 -15 -25 7 -68 -34 -66 -63 1 -11 -6 -20 -18 -22 -24 -4
-45 -29 -44 -51 0 -11 4 -8 11 7 12 24 28 30 28 9 0 -19 -29 -48 -68 -70 -36
-20 -61 -15 -41 9 8 10 9 18 2 25 -7 7 -20 -3 -39 -28 -16 -21 -28 -42 -26
-46 1 -5 -2 -6 -7 -3 -5 3 -11 -1 -15 -9 -3 -8 -12 -15 -20 -15 -8 0 -19 -6
-23 -13 -11 -16 -64 -40 -72 -31 -3 4 0 9 7 11 6 3 12 11 12 19 0 9 4 13 9 10
8 -5 36 42 33 57 -1 4 6 10 15 14 31 11 44 43 18 43 -8 0 -30 -15 -49 -34 -20
-18 -38 -31 -41 -28 -3 3 -14 -4 -26 -16 -11 -13 -24 -20 -30 -17 -5 4 -9 -2
-9 -11 0 -10 -3 -14 -7 -11 -3 4 -12 2 -20 -4 -7 -6 -13 -8 -13 -5 0 4 -14 -2
-30 -14 -20 -14 -45 -22 -73 -22 -137 1 -147 2 -147 15 0 10 -8 13 -25 9 -14
-2 -25 -9 -25 -16 0 -6 -5 -4 -10 4 -7 10 -12 11 -17 4 -9 -12 -37 -24 -73
-30 -19 -3 -21 -2 -10 5 19 13 10 21 -29 24 -17 1 -31 6 -31 11 0 5 -19 6 -42
3 -23 -3 -37 -3 -32 1 7 4 2 15 -12 29 -13 13 -25 19 -29 14 -3 -5 -36 -9 -74
-9 -60 0 -70 3 -74 20 -3 11 -10 17 -16 14 -5 -4 -15 2 -20 12 -13 25 -47 34
-62 16 -17 -21 -39 -17 -68 14 -15 15 -33 27 -40 27 -8 0 -16 6 -19 14 -3 8 0
11 7 7 13 -8 14 -4 5 18 -3 9 -16 16 -29 16 -13 0 -27 9 -34 22 -6 13 -9 15
-7 6 3 -10 1 -18 -4 -18 -5 0 -14 8 -19 18 -6 9 -11 14 -11 10 0 -5 -10 1 -22
11 -13 11 -33 28 -45 39 -13 10 -20 22 -16 26 3 3 0 6 -8 6 -8 0 -23 14 -34
30 -11 16 -28 30 -38 30 -9 0 -16 3 -15 8 3 11 -21 53 -61 102 -20 24 -35 48
-33 52 1 5 -5 8 -13 8 -8 0 -15 7 -15 15 0 8 -13 29 -29 47 -15 18 -31 43 -35
56 -4 12 -12 22 -17 22 -5 0 -9 6 -9 13 -1 6 -9 30 -20 52 -11 22 -19 47 -20
56 0 9 -3 19 -7 23 -5 4 -9 25 -10 46 -1 21 -9 52 -18 70 -9 17 -14 34 -11 37
3 3 0 15 -6 27 -7 11 -11 24 -10 29 1 4 -3 7 -9 7 -6 0 -9 6 -6 14 3 8 2 30
-4 48 -18 63 -27 250 -15 323 3 17 8 56 11 87 4 32 11 61 17 64 6 4 5 10 -3
15 -10 6 -11 9 -1 9 7 0 12 14 12 35 0 19 5 35 11 35 6 0 9 7 6 15 -4 8 -2 17
3 20 6 4 10 14 10 24 0 10 9 21 20 24 20 5 25 -5 21 -45 -1 -10 4 -18 11 -18
10 0 9 -3 -2 -10 -13 -9 -13 -12 3 -21 15 -9 17 -18 11 -57 -4 -25 -15 -53
-25 -62 -20 -17 -35 -105 -20 -115 6 -3 8 -18 6 -33 -2 -15 -6 -42 -9 -59 -3
-21 0 -33 7 -33 8 0 9 -3 1 -8 -11 -7 -17 -209 -6 -227 3 -5 7 -25 8 -45 2
-46 15 -112 24 -125 4 -5 11 -25 15 -44 4 -18 14 -41 24 -50 9 -10 25 -34 35
-54 11 -20 23 -37 28 -37 4 0 8 -6 8 -13 0 -7 10 -23 23 -37 12 -14 40 -46 62
-70 21 -25 48 -50 60 -55 25 -13 35 -51 11 -42 -9 4 -16 2 -16 -4 0 -6 14 -16
30 -22 17 -6 30 -15 30 -19 0 -4 6 -8 14 -8 7 0 16 -9 19 -20 3 -14 1 -18 -6
-13 -19 12 -47 14 -47 4 0 -5 24 -21 53 -35 28 -14 66 -34 82 -44 29 -18 61
-28 179 -58 48 -12 61 -12 68 -2 6 10 10 10 16 1 6 -10 14 -9 36 2 16 8 38 17
50 19 52 10 74 26 188 138 32 31 58 62 58 68 0 5 6 10 14 10 7 0 21 17 31 38
9 20 23 50 31 66 8 16 14 38 14 49 0 11 7 28 15 37 18 20 10 109 -11 117 -7 2
-10 11 -8 18 3 7 -6 37 -19 67 -50 105 -54 122 -52 203 2 89 26 152 72 191 22
19 26 31 29 95 1 41 6 109 9 151 4 43 3 83 -2 90 -7 12 -14 57 -13 83 4 112 1
165 -11 165 -4 0 -9 18 -11 40 -2 22 -1 40 2 40 3 0 5 11 5 24 0 13 -3 22 -7
20 -9 -6 3 79 14 93 5 7 7 17 3 23 -4 6 0 21 8 33 8 13 13 37 11 57 -3 21 2
40 12 51 9 11 14 27 11 39 -3 11 0 23 6 28 18 11 38 52 32 62 -4 6 0 10 7 10
8 0 22 18 32 40 20 46 94 123 112 116 7 -3 14 4 17 15 3 10 1 19 -5 19 -5 0
-6 4 -3 10 3 5 1 20 -6 32 -8 15 -9 23 -1 26 6 2 8 10 5 18 -3 8 0 14 6 14 6
0 8 6 5 14 -3 9 8 18 30 28 49 19 93 21 99 5z m-168 -106 c1 -19 -3 -27 -12
-24 -7 3 -11 8 -9 12 1 3 6 14 9 24 9 24 12 21 12 -12z m-1265 -462 c0 -11 -5
-30 -11 -41 -12 -22 3 -40 26 -32 6 3 20 -4 30 -16 19 -21 45 -27 45 -9 0 5
-4 7 -10 4 -6 -3 -7 1 -4 9 3 9 1 16 -4 16 -6 0 -10 16 -9 35 2 35 12 46 20
23 3 -10 7 -10 18 -1 24 20 49 -8 49 -55 0 -40 1 -41 26 -32 14 6 30 8 35 4 5
-3 9 1 10 8 0 9 2 8 6 -2 3 -8 15 -24 27 -36 12 -11 44 -47 71 -79 54 -64 101
-112 155 -161 58 -53 101 -105 94 -115 -3 -6 3 -13 14 -16 17 -4 19 -9 12 -29
-6 -15 -5 -26 2 -30 7 -4 8 -3 4 4 -4 7 -1 12 7 12 16 0 30 -26 22 -40 -3 -4
4 -10 15 -13 11 -3 19 -9 18 -14 -2 -4 11 -23 27 -41 17 -17 46 -50 65 -72 19
-22 50 -47 67 -56 20 -10 30 -21 26 -28 -4 -6 1 -5 10 3 11 9 17 10 17 2 0 -6
7 -11 15 -11 8 0 15 -6 15 -12 0 -7 12 -24 25 -37 14 -13 25 -32 25 -43 0 -27
-18 -58 -35 -58 -7 0 -15 -4 -17 -10 -3 -10 -104 15 -124 31 -6 5 -23 10 -38
11 -14 1 -26 6 -26 10 0 4 -6 8 -14 8 -8 0 -31 16 -52 35 -20 19 -45 35 -56
35 -11 0 -17 4 -14 9 3 4 -16 27 -42 50 -69 61 -71 63 -81 57 -5 -3 -14 1 -21
9 -11 13 -10 14 5 9 13 -5 16 -4 11 4 -4 7 -16 12 -27 12 -10 0 -19 4 -19 10
0 5 -14 17 -30 25 -17 9 -28 20 -25 25 4 6 2 10 -4 10 -11 0 -52 55 -55 74 -1
7 -9 21 -19 30 -9 10 -31 39 -49 64 -50 75 -99 132 -112 132 -14 0 -56 45 -56
60 0 6 -4 10 -9 10 -5 0 -8 7 -7 16 2 28 -43 25 -50 -2 -3 -13 -4 -29 -1 -36
2 -7 -2 -28 -9 -47 -8 -18 -14 -50 -14 -70 l0 -36 -14 27 c-16 30 -18 85 -4
94 4 3 8 16 8 29 0 18 -5 23 -20 22 -11 -1 -20 -8 -21 -17 0 -9 -3 -7 -9 6
-10 24 -8 43 4 62 4 7 5 19 2 27 -3 8 -2 15 2 15 4 0 8 15 9 33 3 75 7 98 15
103 5 3 6 14 3 25 -5 16 -1 19 24 19 25 0 31 -4 31 -21z m206 -50 c3 -6 2 -15
-4 -21 -7 -7 -14 -3 -21 11 -10 17 -9 21 3 21 8 0 18 -5 22 -11z m1754 -153
c0 -8 7 -17 16 -20 8 -3 12 -11 9 -17 -5 -7 -13 -4 -26 7 -20 18 -26 44 -9 44
6 0 10 -6 10 -14z m-2007 -251 c-3 -9 -8 -14 -10 -11 -3 3 -2 9 2 15 9 16 15
13 8 -4z m2213 -24 c-4 -5 -1 -11 5 -13 6 -2 9 -13 7 -23 -4 -19 -5 -19 -16 3
-12 20 -9 42 4 42 3 0 3 -4 0 -9z m-1670 -276 c10 -8 15 -14 9 -14 -5 0 -19 6
-29 14 -11 8 -15 15 -10 15 6 0 19 -7 30 -15z m1341 -82 c-3 -10 -5 -2 -5 17
0 19 2 27 5 18 2 -10 2 -26 0 -35z m49 -26 c12 4 18 -7 15 -29 0 -4 8 -10 19
-13 10 -3 22 -15 25 -26 5 -15 12 -18 27 -13 14 4 18 3 13 -6 -4 -7 2 -18 14
-27 16 -11 19 -18 12 -27 -6 -7 -8 -16 -4 -19 3 -4 1 -7 -5 -7 -7 0 -12 5 -12
11 0 5 -4 8 -8 5 -5 -3 -15 4 -23 16 -51 72 -70 93 -86 93 -13 0 -19 9 -21 30
-3 23 -1 27 8 18 7 -6 19 -9 26 -6z m-2826 -83 c0 -8 5 -14 11 -14 5 0 8 -4 4
-9 -3 -5 0 -13 6 -16 5 -4 8 -13 5 -20 -3 -8 2 -19 10 -26 8 -7 14 -19 13 -28
-1 -9 1 -23 4 -31 4 -8 8 -26 9 -40 2 -14 9 -30 16 -35 7 -6 15 -26 18 -45 5
-36 31 -101 44 -110 4 -3 17 -23 29 -45 12 -22 27 -49 34 -59 20 -31 104 -116
115 -116 5 0 12 -7 16 -15 3 -8 12 -15 21 -15 8 0 15 -7 15 -15 0 -8 7 -15 15
-15 8 0 37 -13 63 -30 27 -16 54 -30 60 -30 6 0 13 -9 17 -19 4 -12 12 -18 21
-14 7 3 14 1 14 -4 0 -4 16 -17 35 -27 19 -11 35 -23 35 -28 0 -4 7 -8 15 -8
22 0 18 -18 -6 -25 -22 -7 -79 15 -99 40 -7 8 -16 13 -20 10 -12 -7 -71 25
-65 36 4 5 -1 9 -9 9 -9 0 -16 4 -16 9 0 5 -20 14 -45 20 -25 6 -45 16 -45 21
0 6 -7 10 -15 10 -8 0 -15 4 -15 8 0 4 -13 16 -30 25 -16 10 -30 25 -30 33 0
8 -7 14 -15 14 -9 0 -18 7 -21 15 -3 8 -14 17 -25 20 -10 4 -19 14 -20 23 0 9
-3 12 -5 6 -3 -7 4 -27 15 -45 12 -19 21 -43 21 -55 0 -11 10 -30 23 -41 24
-22 57 -61 57 -68 0 -2 11 -16 25 -31 14 -15 25 -33 25 -40 0 -8 4 -14 10 -14
5 0 25 -15 44 -32 47 -46 75 -68 84 -68 4 0 14 -9 22 -20 8 -11 18 -20 23 -20
5 0 14 -6 21 -12 7 -7 27 -24 45 -38 18 -14 43 -35 56 -47 13 -12 34 -25 46
-28 24 -8 41 -20 67 -47 9 -10 22 -18 29 -18 7 0 13 -4 13 -9 0 -16 53 -44 82
-43 17 0 28 -5 28 -12 0 -9 12 -12 38 -9 21 2 56 0 77 -5 l40 -9 -41 -11 c-68
-20 -155 -9 -226 28 -100 51 -108 56 -101 63 3 4 -1 7 -10 7 -19 0 -69 33
-112 73 -16 15 -35 27 -42 27 -7 0 -17 9 -23 20 -6 11 -15 20 -21 20 -6 0 -30
20 -53 45 -24 25 -46 45 -50 45 -4 0 -19 12 -34 28 -15 15 -40 35 -55 45 -20
13 -26 23 -22 38 4 10 2 19 -4 19 -16 0 -61 42 -61 57 0 7 -3 13 -8 13 -4 0
-14 15 -21 33 -8 17 -23 43 -33 57 -10 14 -19 34 -21 45 -1 11 -6 26 -10 33
-5 6 -5 16 -2 22 3 5 -3 17 -14 27 -14 11 -17 21 -11 29 7 8 5 15 -5 24 -8 6
-26 51 -41 98 -15 48 -30 88 -34 90 -4 2 -6 36 -3 77 3 49 0 75 -6 75 -7 0
-11 29 -11 76 0 47 4 73 10 69 6 -3 10 -13 10 -21z m3220 -27 c0 -4 9 -18 20
-29 18 -20 20 -34 18 -127 -1 -69 2 -106 9 -108 6 -2 9 -17 6 -34 -2 -17 0
-29 7 -29 6 0 8 -10 4 -25 -4 -15 -1 -32 6 -40 10 -12 9 -15 -5 -15 -13 0 -15
-3 -7 -13 12 -14 15 -167 6 -232 -4 -22 -11 -46 -17 -53 -6 -8 -10 -27 -9 -43
1 -16 -2 -29 -8 -29 -5 0 -10 -9 -10 -19 0 -11 -5 -23 -10 -26 -6 -4 -8 -11
-5 -16 4 -5 -1 -16 -9 -25 -9 -8 -16 -26 -16 -40 0 -15 -6 -24 -15 -24 -9 0
-15 -6 -13 -13 3 -15 -23 -56 -62 -96 -13 -14 -24 -29 -23 -33 2 -4 -6 -10
-17 -13 -11 -4 -20 -12 -20 -19 0 -20 -88 -76 -120 -76 -17 0 -30 -4 -30 -10
0 -5 -7 -10 -15 -10 -8 0 -15 -5 -15 -11 0 -5 -4 -7 -10 -4 -5 3 -10 -1 -10
-9 0 -10 -6 -13 -15 -10 -8 4 -15 1 -15 -6 0 -6 -5 -8 -12 -4 -8 5 -9 2 -5 -9
3 -10 3 -17 -1 -18 -29 -3 -44 -10 -69 -33 -15 -14 -31 -27 -35 -27 -20 -3
-24 -5 -35 -12 -7 -4 -36 -15 -65 -24 -29 -8 -59 -20 -65 -25 -9 -7 -13 -7
-13 3 0 8 -5 6 -14 -6 -7 -10 -20 -16 -28 -12 -9 3 -29 -3 -46 -13 -22 -13
-33 -15 -41 -7 -8 8 -11 8 -11 -2 0 -9 -9 -12 -25 -9 -14 3 -30 -1 -36 -8 -5
-7 -24 -12 -42 -12 -17 1 -33 -4 -35 -10 -2 -6 -10 -8 -18 -5 -18 7 -74 -16
-74 -29 0 -7 -4 -7 -12 -1 -7 5 -46 9 -86 9 -39 -1 -72 3 -72 8 0 5 -6 3 -13
-3 -8 -6 -16 -9 -19 -6 -2 2 -39 5 -81 6 -42 1 -77 5 -77 9 0 4 -11 6 -25 5
-16 -2 -25 2 -25 10 0 8 -9 17 -20 20 -11 3 -20 11 -20 16 0 5 9 9 20 9 22 0
28 19 8 22 -7 0 -17 2 -23 2 -5 1 -16 5 -22 9 -7 5 -13 4 -13 0 0 -13 -42 -14
-56 -2 -8 6 -14 7 -18 0 -4 -6 -18 -6 -36 -1 -16 5 -32 5 -35 0 -3 -5 -19 -7
-36 -5 -17 3 -40 0 -50 -6 -11 -5 -19 -6 -19 -1 0 9 -77 7 -110 -3 -11 -3 -20
-2 -20 3 0 11 -30 9 -50 -3 -9 -6 -17 -3 -24 7 -8 14 -12 14 -20 3 -16 -20
-57 15 -50 42 6 20 54 43 93 43 12 0 31 5 42 11 14 7 24 7 32 0 8 -6 18 -6 27
-1 8 5 18 6 22 4 4 -3 8 0 8 5 0 10 14 10 110 -3 14 -2 30 0 35 5 18 14 88 15
93 1 5 -17 22 -15 22 2 0 14 1 14 80 -12 34 -11 72 -19 130 -26 13 -2 26 -8
28 -14 2 -7 12 -8 25 -3 30 10 135 -8 116 -20 -8 -5 -25 -9 -38 -9 -16 0 -22
-3 -15 -10 14 -14 206 -21 222 -8 8 7 12 7 12 -2 0 -8 7 -10 23 -5 12 4 32 6
45 6 12 0 22 4 22 10 0 8 5 7 15 -1 8 -7 15 -8 15 -3 0 5 8 9 18 9 9 1 35 4
57 9 22 4 47 8 55 9 9 1 21 6 28 10 7 4 20 5 28 2 9 -3 12 -1 9 4 -3 6 4 10
17 10 14 0 33 7 44 15 10 8 27 15 36 15 26 0 148 67 174 96 13 13 28 24 34 24
5 0 10 5 10 11 0 5 4 8 9 4 5 -3 11 5 13 17 2 13 9 22 16 21 6 -2 12 1 12 7 0
21 42 57 63 55 36 -4 37 -4 37 -20 0 -12 4 -13 25 -3 13 6 22 14 20 19 -3 4
15 28 40 53 25 25 44 52 42 59 -1 6 4 11 11 10 6 -2 12 1 12 6 0 5 3 17 6 26
6 15 4 15 -14 4 -12 -7 -24 -11 -27 -7 -7 7 15 58 25 58 4 0 10 10 13 23 2 12
13 51 23 87 14 53 17 101 16 253 -1 150 2 197 15 228 16 41 12 123 -8 134 -5
4 -9 17 -9 30 0 13 -4 27 -10 30 -5 3 -10 15 -10 26 0 10 -4 19 -10 19 -17 0
-11 48 7 58 17 10 82 -15 83 -31z m-250 -150 c0 -5 -4 -5 -10 -2 -5 3 -10 14
-10 23 0 15 2 15 10 2 5 -8 10 -19 10 -23z m37 -114 c0 -7 -7 -13 -14 -13 -8
0 -11 5 -8 10 3 6 2 10 -4 10 -6 0 -8 7 -5 15 4 11 9 11 18 2 7 -6 13 -17 13
-24z m0 -105 c-3 -8 -6 -5 -6 6 -1 11 2 17 5 13 3 -3 4 -12 1 -19z m33 -22 c0
-2 -7 -9 -15 -16 -12 -10 -15 -10 -15 4 0 9 7 16 15 16 8 0 15 -2 15 -4z m0
-137 c0 -18 -18 -9 -23 12 -4 16 -3 18 9 8 8 -6 14 -15 14 -20z m-13 -41 c-3
-8 -6 -5 -6 6 -1 11 2 17 5 13 3 -3 4 -12 1 -19z m28 13 c3 -5 1 -12 -5 -16
-5 -3 -10 1 -10 9 0 18 6 21 15 7z m-7 -49 c-10 -2 -18 -10 -18 -18 0 -8 -4
-14 -10 -14 -11 0 -14 33 -4 42 3 3 15 3 27 0 18 -5 19 -7 5 -10z m-668 -602
c0 -11 -48 -45 -55 -38 -6 6 33 48 45 48 6 0 10 -4 10 -10z m-890 -70 c0 -5
-4 -10 -10 -10 -5 0 -10 5 -10 10 0 6 5 10 10 10 6 0 10 -4 10 -10z m230 -180
c0 -5 -4 -10 -10 -10 -5 0 -10 5 -10 10 0 6 5 10 10 10 6 0 10 -4 10 -10z"/>
<path d="M3446 5469 c-4 -46 -8 -122 -9 -169 l-2 -85 42 -3 c34 -3 48 2 67 21
21 21 24 36 31 146 7 115 6 124 -13 143 -11 12 -39 22 -65 25 l-45 5 -6 -83z"/>
<path d="M2184 5204 c19 -49 37 -88 40 -87 4 1 20 10 36 20 l30 19 -70 69 -69
69 33 -90z"/>
<path d="M1368 4428 c-19 -14 -51 -95 -43 -108 3 -4 26 -13 52 -19 27 -7 55
-14 64 -17 12 -3 18 8 28 48 10 47 10 55 -7 78 -22 29 -68 38 -94 18z"/>
<path d="M3953 3608 c-5 -7 -9 -20 -8 -28 1 -8 3 -21 3 -28 3 -19 43 -11 56
11 20 32 -28 75 -51 45z"/>
<path d="M3438 3592 c-29 -6 -34 -43 -9 -63 18 -15 27 -16 47 -7 47 22 15 82
-38 70z"/>
<path d="M3650 3223 c0 -9 3 -13 7 -10 3 4 12 2 20 -4 7 -6 13 -7 13 -3 0 5
-9 15 -20 22 -17 10 -20 10 -20 -5z"/>
<path d="M3778 2995 c-8 -9 13 -86 22 -80 9 6 4 50 -9 72 -4 8 -10 11 -13 8z"/>
<path d="M3740 2521 c0 -11 -4 -23 -10 -26 -5 -3 -10 -20 -10 -38 0 -27 2 -29
14 -17 17 19 30 100 16 100 -5 0 -10 -9 -10 -19z"/>
<path d="M3825 1619 c-4 -6 -5 -12 -2 -15 2 -3 7 2 10 11 7 17 1 20 -8 4z"/>
<path d="M3760 1599 c-14 -24 11 -27 34 -3 20 19 20 19 -4 21 -11 1 -25 -7
-30 -18z"/>
<path d="M3124 1495 c-18 -14 -18 -14 4 -8 12 3 22 9 22 14 0 12 -3 11 -26 -6z"/>
<path d="M3465 1500 c-3 -5 -1 -10 4 -10 6 0 11 5 11 10 0 6 -2 10 -4 10 -3 0
-8 -4 -11 -10z"/>
<path d="M3405 1473 c-22 -5 -45 -23 -29 -23 5 0 32 7 59 14 39 11 43 14 20
14 -16 0 -39 -2 -50 -5z"/>
<path d="M2141 3494 c0 -11 3 -14 6 -6 3 7 2 16 -1 19 -3 4 -6 -2 -5 -13z"/>
<path d="M2086 3485 c4 -8 8 -15 10 -15 2 0 4 7 4 15 0 8 -4 15 -10 15 -5 0
-7 -7 -4 -15z"/>
<path d="M2235 3480 c3 -5 11 -10 16 -10 6 0 7 5 4 10 -3 6 -11 10 -16 10 -6
0 -7 -4 -4 -10z"/>
<path d="M1306 2193 c5 -5 12 -12 16 -18 4 -6 8 -2 8 8 0 9 -7 17 -17 17 -9 0
-12 -3 -7 -7z"/>
<path d="M4401 2229 c2 -13 0 -30 -5 -37 -4 -7 -5 -30 -1 -50 6 -31 8 -34 17
-19 6 12 6 22 -1 31 -6 7 -8 15 -6 18 11 11 13 68 3 74 -6 4 -8 -3 -7 -17z"/>
<path d="M4400 2066 c0 -31 6 -34 13 -6 3 11 1 23 -4 26 -5 3 -9 -6 -9 -20z"/>
<path d="M4385 1960 c-3 -5 -1 -10 4 -10 6 0 11 5 11 10 0 6 -2 10 -4 10 -3 0
-8 -4 -11 -10z"/>
<path d="M4130 1540 c0 -5 5 -10 10 -10 6 0 10 5 10 10 0 6 -4 10 -10 10 -5 0
-10 -4 -10 -10z"/>
<path d="M2582 1321 c-11 -6 -10 -10 4 -15 20 -8 32 0 18 14 -5 5 -15 5 -22 1z"/>
<path d="M2790 1321 c0 -13 21 -19 43 -13 15 4 16 7 5 13 -17 12 -48 11 -48 0z"/>
<path d="M2860 1310 c0 -5 5 -10 10 -10 6 0 10 5 10 10 0 6 -4 10 -10 10 -5 0
-10 -4 -10 -10z"/>
<path d="M2954 1239 c-3 -5 2 -6 10 -3 9 3 16 1 16 -5 0 -6 19 -9 52 -7 29 2
62 0 75 -5 12 -4 25 -4 27 0 3 5 -13 12 -37 16 -63 11 -137 13 -143 4z"/>
<path d="M3155 1220 c-8 -13 5 -13 25 0 13 8 13 10 -2 10 -9 0 -20 -4 -23 -10z"/>
<path d="M3286 1222 c-3 -5 1 -9 9 -9 8 0 12 4 9 9 -3 4 -7 8 -9 8 -2 0 -6 -4
-9 -8z"/>
</g>
</svg>
